# xmcd
#
# Track frame offsets: 
#        150
#        15749
#        32171
#        49387
#        63094
#        80613
#        97119
#        113040
#        127389
#        144695
#
# Disc length: 2108 seconds
#
# Revision: 0
# Processed by: cddbd v1.5.2PL0 Copyright (c) Steve Scherf et al.
# Submitted via: ExactAudioCopy v0.95b4
#
DISCID=91083a0a
DTITLE=CHRIS CUMMINGS - GIVE ME TONIGHT
DYEAR=2010
DGENRE=COUNTRY
TTITLE0=HEART LIKE A STONE
TTITLE1=LEAVING'S NOT AN OPTION
TTITLE2=GIVE ME TONIGHT
TTITLE3=WELCOME BACK
TTITLE4='TIL I SEE YOU SMILE
TTITLE5=FOR THE MUSIC
TTITLE6=THE FAVORITES
TTITLE7=LOOKING FOR A SIGN
TTITLE8=LUCY GOT LUCKY
TTITLE9=WELCOME BACK (COUNTRY VERSION)
EXTD=
EXTT0=
EXTT1=
EXTT2=
EXTT3=
EXTT4=
EXTT5=
EXTT6=
EXTT7=
EXTT8=
EXTT9=
PLAYORDER=
